<?xml version="1.0" standalone="no"?>
<!DOCTYPE svg PUBLIC "-//W3C//DTD SVG 20010904//EN"
 "http://www.w3.org/TR/2001/REC-SVG-20010904/DTD/svg10.dtd">
<svg version="1.0" xmlns="http://www.w3.org/2000/svg"
 width="512.000000pt" height="512.000000pt" viewBox="0 0 512.000000 512.000000"
 preserveAspectRatio="xMidYMid meet">

<g transform="translate(0.000000,512.000000) scale(0.100000,-0.100000)"
fill="#000000" stroke="none">
<path d="M2235 5110 c-763 -53 -1364 -243 -1677 -530 -85 -78 -168 -201 -205
-305 l-28 -80 -3 -1602 c-3 -1787 -7 -1679 67 -1828 191 -386 795 -653 1681
-741 242 -25 738 -25 980 0 894 89 1499 359 1686 751 67 139 64 48 64 1785 0
1727 2 1645 -60 1778 -90 193 -254 338 -531 471 -303 146 -678 239 -1151 286
-187 19 -646 27 -823 15z m665 -321 c672 -47 1220 -219 1458 -457 352 -352
-84 -748 -998 -906 -282 -49 -428 -60 -800 -60 -371 0 -518 11 -800 60 -290
50 -516 117 -716 214 -734 355 -432 869 632 1079 142 28 445 67 579 74 148 8
513 6 645 -4z m-2041 -1413 c768 -396 2218 -447 3148 -110 150 54 276 116 391
190 l83 54 -3 -317 -3 -318 -29 -55 c-138 -262 -632 -466 -1336 -551 -160 -20
-233 -23 -550 -23 -316 0 -390 3 -550 23 -708 85 -1197 289 -1339 556 l-26 50
-3 318 -3 317 67 -45 c37 -24 106 -65 153 -89z m-84 -887 c380 -275 1221 -442
2021 -401 765 40 1305 196 1652 478 l33 27 -3 -339 -3 -339 -29 -55 c-138
-262 -632 -466 -1336 -551 -160 -20 -233 -23 -550 -23 -316 0 -390 3 -550 23
-708 85 -1197 289 -1339 556 l-26 50 -3 339 -3 339 33 -27 c18 -14 65 -49 103
-77z m0 -960 c380 -275 1221 -442 2021 -401 765 40 1305 196 1652 478 l32 27
0 -322 c0 -293 -2 -325 -19 -372 -97 -255 -561 -476 -1192 -568 -262 -39 -378
-46 -719 -46 -361 1 -513 13 -790 61 -594 102 -1009 311 -1101 553 -17 47 -19
79 -19 372 l0 322 33 -27 c17 -14 64 -49 102 -77z"/>
<path d="M3930 3018 c-48 -25 -90 -89 -90 -138 0 -14 10 -46 23 -70 24 -48 88
-90 137 -90 14 0 46 10 70 23 48 24 90 88 90 137 0 49 -42 113 -90 138 -24 12
-56 22 -70 22 -14 0 -46 -10 -70 -22z"/>
<path d="M3930 2058 c-48 -25 -90 -89 -90 -138 0 -14 10 -46 23 -70 24 -48 88
-90 137 -90 14 0 46 10 70 23 48 24 90 88 90 137 0 14 -10 46 -22 70 -25 48
-89 90 -138 90 -14 0 -46 -10 -70 -22z"/>
<path d="M3930 1098 c-48 -25 -90 -89 -90 -138 0 -14 10 -46 23 -70 24 -48 88
-90 137 -90 14 0 46 10 70 23 48 24 90 88 90 137 0 49 -42 113 -90 138 -24 12
-56 22 -70 22 -14 0 -46 -10 -70 -22z"/>
</g>
</svg>
