<?xml version="1.0" encoding="UTF-8"?>
<!-- Uploaded to: SVG Repo, www.svgrepo.com, Generator: SVG Repo Mixer Tools -->
<svg fill="#000000" width="800px" height="800px" version="1.1" viewBox="144 144 512 512" xmlns="http://www.w3.org/2000/svg">
 <g>
  <path d="m444.52 262.73c0-24.352-19.816-44.168-44.168-44.168-24.348 0-44.164 19.816-44.164 44.168s19.816 44.16 44.168 44.16c24.352-0.003906 44.164-19.809 44.164-44.16zm-73.727 0c0-16.301 13.262-29.562 29.562-29.562s29.562 13.262 29.562 29.562-13.262 29.555-29.562 29.555-29.562-13.254-29.562-29.555z"/>
  <path d="m170 543.45h130.22c4.0352 0 7.3008-3.2656 7.3008-7.3008v-72.473c0-4.0352-3.2656-7.3008-7.3008-7.3008h-57.812v-20.008h115.8l34.84 34.84v43.387c-30.484 3.6289-54.219 29.602-54.219 61.047 0 33.918 27.602 61.523 61.523 61.523 33.918 0 61.523-27.602 61.523-61.523 0-31.445-23.734-57.418-54.219-61.047v-43.387l34.832-34.84 127.81-0.003906v19.336h-45.086c-4.0352 0-7.3008 3.2656-7.3008 7.3008v72.473c0 4.0352 3.2656 7.3008 7.3008 7.3008l104.78 0.003907c4.0352 0 7.3008-3.2656 7.3008-7.3008v-72.473c0-4.0352-3.2656-7.3008-7.3008-7.3008h-45.086v-26.641c0-4.0352-3.2656-7.3008-7.3008-7.3008h-135.12l-34.832-34.832v-24.309h4.9336c3.4297 0 6.3945-2.3906 7.1289-5.7344l2.5469-11.578c7.3516-1.9453 14.375-4.8633 20.969-8.6992l10.004 6.3945c2.8789 1.8242 6.6602 1.4336 9.0977-0.99219l17.293-17.293c2.4258-2.4258 2.8398-6.2031 0.99219-9.0898l-6.3945-10.02c3.8359-6.5938 6.7461-13.613 8.6992-20.965l11.586-2.5469c3.3438-0.73438 5.7344-3.6992 5.7344-7.1289v-24.469c0-3.4297-2.3828-6.3945-5.7344-7.1289l-11.586-2.5508c-1.9531-7.3594-4.8633-14.383-8.6992-20.965l6.3945-10.02c1.8477-2.8867 1.4336-6.668-0.99219-9.0898l-17.293-17.293c-2.4297-2.4297-6.2109-2.8164-9.0977-0.99219l-10.004 6.3945c-6.5938-3.8359-13.617-6.7539-20.969-8.6992l-2.5469-11.578c-0.73438-3.3438-3.6992-5.7344-7.1289-5.7344h-24.473c-3.4297 0-6.3945 2.3828-7.1289 5.7344l-2.5508 11.578c-7.3594 1.9531-14.375 4.8633-20.957 8.6992l-10.02-6.3945c-2.875-1.8398-6.668-1.4414-9.0898 0.99219l-17.297 17.293c-2.4258 2.4258-2.8398 6.2109-0.99219 9.0977l6.4023 10.004c-3.8438 6.5938-6.7578 13.617-8.707 20.969l-11.578 2.5508c-3.3516 0.73438-5.7344 3.6992-5.7344 7.1289v24.473c0 3.4297 2.3906 6.3945 5.7344 7.1289l11.578 2.5469c1.9531 7.3594 4.8789 14.383 8.7148 20.969l-6.4023 10.004c-1.8555 2.8867-1.4414 6.6758 0.98438 9.0977l17.297 17.293c2.4258 2.4258 6.2188 2.832 9.0898 0.99219l10.02-6.3945c6.582 3.8359 13.598 6.7461 20.957 8.6992l2.5508 11.578c0.73438 3.3516 3.6992 5.7344 7.1289 5.7344h4.9336v24.309l-34.84 34.832-123.11 0.003906c-4.0352 0-7.3008 3.2656-7.3008 7.3008v27.309h-57.805c-4.0352 0-7.3008 3.2656-7.3008 7.3008l-0.003907 72.477c0 4.0352 3.2656 7.3008 7.3047 7.3008zm452.7-15.273h-90.172v-57.871h90.172zm-236.64-196.07c-8.8125-1.8164-17.098-5.2539-24.613-10.219-2.4023-1.5898-5.5195-1.6133-7.9492-0.058594l-8.9492 5.7109-8.9922-8.9922 5.7188-8.9258c1.5625-2.4297 1.5391-5.5469-0.058594-7.957-4.9688-7.5352-8.4141-15.824-10.23-24.637-0.58594-2.8242-2.7734-5.0352-5.582-5.6562l-10.332-2.2656v-12.734l10.332-2.2734c2.8164-0.62109 5-2.8398 5.582-5.6562 1.8125-8.8008 5.2539-17.09 10.227-24.645 1.5898-2.4023 1.6055-5.5195 0.058593-7.9492l-5.7188-8.9258 9-8.9922 8.9492 5.7109c2.4297 1.5469 5.5469 1.5117 7.9492-0.058593 7.5156-4.9609 15.801-8.3984 24.613-10.219 2.8164-0.58594 5.0352-2.7656 5.6562-5.582l2.2734-10.332h12.734l2.2656 10.332c0.62109 2.8164 2.8398 5 5.6602 5.582 8.8008 1.8125 17.09 5.2461 24.637 10.219 2.4102 1.5898 5.5117 1.5977 7.9492 0.058593l8.9258-5.7109 8.9922 8.9922-5.7109 8.9492c-1.5547 2.4297-1.5273 5.5469 0.058594 7.9492 4.9609 7.5156 8.3984 15.801 10.219 24.621 0.58594 2.8242 2.7656 5.0352 5.582 5.6562l10.34 2.2734v12.727l-10.34 2.2734c-2.8086 0.62109-5 2.832-5.582 5.6562-1.8125 8.8047-5.2539 17.086-10.219 24.629-1.582 2.4023-1.6055 5.5195-0.058594 7.9414l5.7109 8.9492-8.9922 8.9922-8.9258-5.7109c-2.4375-1.5469-5.5547-1.5469-7.9492 0.058594-7.543 4.9688-15.836 8.4062-24.637 10.219-2.8242 0.58594-5.043 2.7656-5.6602 5.582l-2.2656 10.332h-12.734l-2.2734-10.332c-0.625-2.8125-2.8438-4.9961-5.6602-5.582zm61.215 243.54c0 25.871-21.051 46.918-46.918 46.918-25.871 0-46.918-21.051-46.918-46.918 0-25.871 21.051-46.918 46.918-46.918 25.867 0 46.918 21.047 46.918 46.918zm-47.262-175.02c0.12109 0.003906 0.22266 0.070312 0.34375 0.070312 0.12109 0 0.22266-0.0625 0.34375-0.070312l28.441 28.441-28.785 28.793-28.793-28.793zm-222.71 70.355h115.62v57.871h-115.62z"/>
 </g>
</svg>